# Blender 3.3.1
# www.blender.org
mtllib drone.mtl
o Cube
v 1.000000 1.000000 -0.500000
v 1.000000 1.000000 0.500000
v 0.000000 1.000000 -0.500000
v 0.000000 1.000000 0.500000
v 0.690936 0.850000 1.862419
v 0.000000 0.850000 1.862419
v 0.553867 0.898058 -2.391023
v 0.000000 0.898058 -2.391023
v 1.110583 0.850000 -0.500000
v 1.110583 0.850000 0.500000
v 0.801519 0.700000 2.144238
v 0.000000 0.700000 2.144238
v 0.664450 0.748058 -2.418551
v 0.000000 0.748058 -2.418551
v 0.000000 0.251030 -0.500000
v 0.000000 0.251030 0.500000
v 0.000000 0.401030 2.015575
v 0.000000 0.332921 -2.418551
v 0.000000 0.551030 2.144238
v 0.000000 0.482921 -2.418551
v 1.000000 0.251030 -0.500000
v 1.000000 0.251030 0.500000
v 0.690936 0.401030 2.015575
v 0.553866 0.332921 -2.418551
v 1.110583 0.401030 -0.500000
v 1.110583 0.401030 0.500000
v 0.801519 0.551030 2.144238
v 0.664450 0.482921 -2.418551
v 1.110583 0.625515 0.500000
v 1.110583 0.625515 -0.500000
v 0.664450 0.625515 -2.418551
v 0.000000 0.625515 -2.418551
v 0.000000 0.625515 2.144238
v 0.801519 0.625515 2.144238
v 0.000000 -0.007633 1.467340
v 0.000000 0.482945 1.854127
v 0.000000 0.042598 -2.091793
v 0.000000 0.482945 -2.268011
v 0.498631 0.042598 1.467340
v 0.572078 0.482945 1.854127
v 0.498631 0.042598 -2.091793
v 0.572078 0.482945 -2.268011
v 0.500000 1.000000 0.500000
v 0.500000 1.000000 -0.500000
v 0.345468 0.850000 1.862419
v 0.276933 0.898058 -2.391023
v 0.400759 0.700000 2.144238
v 0.332225 0.748058 -2.418551
v 0.500000 0.251030 0.500000
v 0.500000 0.251030 -0.500000
v 0.345468 0.401030 2.015575
v 0.276933 0.332921 -2.418551
v 0.400759 0.551030 2.144238
v 0.332225 0.482921 -2.418551
v 0.400759 0.625515 2.144238
v 0.332225 0.625515 -2.418551
v 0.000000 -0.007633 -0.893965
v 0.000000 -0.007633 0.480081
v 0.000000 0.482945 0.480081
v 0.000000 0.482945 -0.893965
v 0.498631 0.042598 0.480081
v 0.498631 0.042598 -0.893965
v 0.572078 0.482945 -0.893965
v 0.572078 0.482945 0.480081
v 0.212592 0.042598 -2.091793
v 0.286039 0.482945 -2.268011
v 0.286039 -0.007633 1.467340
v 0.286039 0.482945 1.854127
v 0.286039 0.482945 -0.893965
v 0.286039 0.482945 0.480081
v 0.286039 -0.007633 -0.893965
v 0.286039 -0.007633 0.480081
v -1.000000 1.000000 -0.500000
v -1.000000 1.000000 0.500000
v -0.690936 0.850000 1.862419
v -0.553867 0.898058 -2.391023
v -1.110583 0.850000 -0.500000
v -1.110583 0.850000 0.500000
v -0.801519 0.700000 2.144238
v -0.664450 0.748058 -2.418551
v -1.000000 0.251030 -0.500000
v -1.000000 0.251030 0.500000
v -0.690936 0.401030 2.015575
v -0.553866 0.332921 -2.418551
v -1.110583 0.401030 -0.500000
v -1.110583 0.401030 0.500000
v -0.801519 0.551030 2.144238
v -0.664450 0.482921 -2.418551
v -1.110583 0.625515 0.500000
v -1.110583 0.625515 -0.500000
v -0.664450 0.625515 -2.418551
v -0.801519 0.625515 2.144238
v -0.498631 0.042598 1.467340
v -0.572078 0.482945 1.854127
v -0.498631 0.042598 -2.091793
v -0.572078 0.482945 -2.268011
v -0.500000 1.000000 0.500000
v -0.500000 1.000000 -0.500000
v -0.345468 0.850000 1.862419
v -0.276933 0.898058 -2.391023
v -0.400759 0.700000 2.144238
v -0.332225 0.748058 -2.418551
v -0.500000 0.251030 0.500000
v -0.500000 0.251030 -0.500000
v -0.345468 0.401030 2.015575
v -0.276933 0.332921 -2.418551
v -0.400759 0.551030 2.144238
v -0.332225 0.482921 -2.418551
v -0.400759 0.625515 2.144238
v -0.332225 0.625515 -2.418551
v -0.498631 0.042598 0.480081
v -0.498631 0.042598 -0.893965
v -0.572078 0.482945 -0.893965
v -0.572078 0.482945 0.480081
v -0.212592 0.042598 -2.091793
v -0.286039 0.482945 -2.268011
v -0.286039 -0.007633 1.467340
v -0.286039 0.482945 1.854127
v -0.286039 0.482945 -0.893965
v -0.286039 0.482945 0.480081
v -0.286039 -0.007633 -0.893965
v -0.286039 -0.007633 0.480081
vn -0.0000 1.0000 -0.0000
vn -0.0000 0.9940 0.1094
vn -0.0000 0.9986 -0.0538
vn 0.6822 0.7003 0.2101
vn -0.0000 0.8827 0.4698
vn -0.0000 0.1805 -0.9836
vn 0.8049 0.5934 -0.0000
vn 0.7769 0.5923 -0.2137
vn -0.0000 -1.0000 -0.0000
vn -0.0000 -0.9951 0.0985
vn -0.0000 -0.9991 -0.0426
vn 0.7434 -0.6364 0.2058
vn -0.0000 -0.6511 0.7590
vn -0.0000 -0.0000 -1.0000
vn 0.8049 -0.5934 -0.0000
vn 0.7873 -0.5804 -0.2079
vn 0.9828 -0.0000 0.1847
vn 1.0000 -0.0000 -0.0000
vn 0.9740 -0.0000 -0.2265
vn -0.0000 -0.0000 1.0000
vn -1.0000 -0.0000 -0.0000
vn -0.0000 -0.3715 -0.9284
vn 0.9864 -0.1645 -0.0000
vn -0.0000 -0.6191 0.7853
vn 0.2299 -0.9732 -0.0000
vn 0.1002 -0.9947 -0.0239
vn -0.0000 -0.9991 -0.0419
vn 0.0646 -0.6408 0.7650
vn -0.6822 0.7003 0.2101
vn -0.8049 0.5934 -0.0000
vn -0.7769 0.5923 -0.2137
vn -0.7434 -0.6364 0.2058
vn -0.8049 -0.5934 -0.0000
vn -0.7873 -0.5804 -0.2079
vn -0.9828 -0.0000 0.1847
vn -0.9740 -0.0000 -0.2265
vn -0.9864 -0.1645 -0.0000
vn -0.2299 -0.9732 -0.0000
vn -0.1002 -0.9947 -0.0239
vn -0.0646 -0.6408 0.7650
vt 0.500000 0.500000
vt 0.484375 -0.375000
vt 0.625000 0.500000
vt 0.720244 0.750000
vt 0.500000 0.750000
vt 0.625000 0.393114
vt 0.625000 0.750000
vt 0.875000 0.500000
vt 0.875000 0.750000
vt 0.875000 0.393129
vt 0.718750 0.280499
vt 0.625000 0.750000
vt 0.875000 0.750000
vt 0.875000 0.600000
vt 0.625000 -0.375000
vt 0.625000 0.671875
vt 0.484375 0.500000
vt 0.875000 0.671875
vt 0.875000 -0.375000
vt 0.625000 0.499835
vt 0.625000 -0.375000
vt 0.625000 0.254210
vt 0.765625 -0.375000
vt 0.625000 0.750000
vt 0.312500 0.250000
vt 0.398750 0.275037
vt 0.625000 0.265625
vt 0.398750 0.750000
vt 0.625000 0.562500
vt 0.625000 0.600000
vt 0.875000 0.750000
vt 0.484375 0.468750
vt 0.765625 0.500000
vt 0.625000 0.500000
vt 0.875000 0.500000
vt 0.875000 0.500000
vt 0.875000 -0.578125
vt 0.875000 0.750000
vt 0.875000 0.250000
vt 0.875000 0.750000
vt 0.625000 0.671875
vt 0.875000 0.500000
vt 0.625000 0.859375
vt 0.484375 0.671875
vt 0.875000 0.625000
vt 0.875000 0.421875
vt 0.625000 -0.375000
vt 0.625000 0.500000
vt 0.562500 0.275037
vt 0.625000 0.750000
vt 0.562500 0.750000
vt 0.343750 0.671875
vt 0.625000 0.250000
vt 0.625000 0.500000
vt 0.750000 0.500000
vt 0.750000 -0.375000
vt 0.625000 -0.375000
vt 0.625000 0.734375
vt 0.478125 0.275037
vt 0.750000 0.750000
vt 0.398750 0.275037
vt 0.312500 0.750000
vt 0.478125 0.750000
vt 0.398750 0.750000
vt 0.625000 0.671875
vt 0.343750 0.859375
vt 0.625000 0.421875
vt 0.765625 0.500000
vt 0.625000 0.500000
vt 0.625000 0.625000
vt 0.478125 0.275037
vt 0.312500 0.500000
vt 0.312500 0.275037
vt 0.625000 -0.375000
vt 0.482428 -0.375000
vt 0.625000 0.500000
vt 0.482428 0.500000
vt 0.625000 0.500000
vt 0.625000 0.375000
vt 0.875000 0.375000
vt 0.875000 0.500000
vt 0.484375 0.562500
vt 0.478125 0.750000
vt 0.312500 0.750000
vt 0.625000 0.562500
vt 0.625000 0.468750
vt 0.375000 0.000000
vt 0.375000 1.000000
vt 0.125000 0.750000
vt 0.625000 0.000000
vt 0.625000 1.000000
vt 0.875000 0.750000
vt 0.125000 0.500000
vt 0.375000 0.250000
vt 0.875000 0.500000
vt 0.625000 0.250000
vt 0.375000 0.750000
vt 0.625000 0.750000
vt 0.375000 0.500000
vt 0.625000 0.500000
vt 0.750000 0.393114
vt 0.750000 0.750000
vt 0.750000 0.500000
vt 0.750000 0.600000
vt 0.750000 0.750000
vt 0.750000 0.671875
vt 0.750000 -0.375000
vt 0.750000 0.750000
vt 0.343750 0.468750
vt 0.484375 0.562500
vt 0.750000 0.600000
vt 0.750000 0.500000
vt 0.750000 0.250000
vt 0.750000 0.750000
vt 0.750000 -0.375000
vt 0.750000 -0.578125
vt 0.750000 0.500000
vt 0.750000 0.750000
vt 0.484375 0.671875
vt 0.750000 0.250000
vt 0.750000 0.500000
vt 0.343750 0.671875
vt 0.484375 0.671875
vt 0.484375 0.859375
vt 0.750000 0.625000
vt 0.750000 0.421875
vt 0.343750 0.562500
vt 0.484375 0.562500
vt 0.484375 0.468750
vt 0.750000 0.500000
vt 0.750000 0.375000
vt 0.375000 0.166667
vt 0.125000 0.583333
vt 0.375000 0.083333
vt 0.125000 0.666667
vt 0.625000 0.083333
vt 0.875000 0.666667
vt 0.625000 0.166667
vt 0.875000 0.583333
vt 0.375000 0.666667
vt 0.375000 0.583333
vt 0.625000 0.583333
vt 0.625000 0.666667
vt 0.250000 0.500000
vt 0.375000 0.375000
vt 0.750000 0.500000
vt 0.625000 0.375000
vt 0.250000 0.750000
vt 0.375000 0.875000
vt 0.750000 0.750000
vt 0.625000 0.875000
vt 0.750000 0.583333
vt 0.750000 0.666667
vt 0.250000 0.583333
vt 0.250000 0.666667
vt 0.500000 0.500000
vt 0.484375 -0.375000
vt 0.625000 0.500000
vt 0.720244 0.750000
vt 0.500000 0.750000
vt 0.625000 0.393114
vt 0.625000 0.750000
vt 0.718750 0.280499
vt 0.625000 0.750000
vt 0.625000 -0.375000
vt 0.625000 0.671875
vt 0.484375 0.500000
vt 0.625000 0.499835
vt 0.625000 -0.375000
vt 0.625000 0.254210
vt 0.765625 -0.375000
vt 0.625000 0.750000
vt 0.312500 0.250000
vt 0.398750 0.275037
vt 0.625000 0.265625
vt 0.398750 0.750000
vt 0.625000 0.562500
vt 0.625000 0.600000
vt 0.765625 0.500000
vt 0.625000 0.500000
vt 0.625000 -0.375000
vt 0.625000 0.500000
vt 0.562500 0.275037
vt 0.625000 0.750000
vt 0.562500 0.750000
vt 0.343750 0.671875
vt 0.625000 0.250000
vt 0.625000 0.500000
vt 0.750000 0.500000
vt 0.750000 -0.375000
vt 0.625000 -0.375000
vt 0.625000 0.734375
vt 0.478125 0.275037
vt 0.750000 0.750000
vt 0.398750 0.275037
vt 0.312500 0.750000
vt 0.478125 0.750000
vt 0.398750 0.750000
vt 0.625000 0.671875
vt 0.343750 0.859375
vt 0.625000 0.421875
vt 0.765625 0.500000
vt 0.625000 0.500000
vt 0.625000 0.625000
vt 0.478125 0.275037
vt 0.312500 0.500000
vt 0.312500 0.275037
vt 0.625000 -0.375000
vt 0.482428 -0.375000
vt 0.625000 0.500000
vt 0.482428 0.500000
vt 0.625000 0.500000
vt 0.625000 0.375000
vt 0.478125 0.750000
vt 0.312500 0.750000
vt 0.625000 0.562500
vt 0.625000 0.468750
vt 0.375000 0.750000
vt 0.625000 0.750000
vt 0.375000 0.500000
vt 0.625000 0.500000
vt 0.750000 0.393114
vt 0.750000 0.750000
vt 0.750000 0.500000
vt 0.750000 0.600000
vt 0.750000 0.750000
vt 0.750000 0.671875
vt 0.750000 -0.375000
vt 0.750000 0.750000
vt 0.343750 0.468750
vt 0.484375 0.562500
vt 0.750000 0.600000
vt 0.750000 0.500000
vt 0.750000 0.250000
vt 0.750000 0.750000
vt 0.750000 -0.375000
vt 0.750000 -0.578125
vt 0.750000 0.500000
vt 0.750000 0.750000
vt 0.484375 0.671875
vt 0.750000 0.250000
vt 0.750000 0.500000
vt 0.343750 0.671875
vt 0.484375 0.671875
vt 0.484375 0.859375
vt 0.750000 0.625000
vt 0.750000 0.421875
vt 0.343750 0.562500
vt 0.484375 0.562500
vt 0.484375 0.468750
vt 0.750000 0.500000
vt 0.750000 0.375000
vt 0.375000 0.666667
vt 0.375000 0.583333
vt 0.625000 0.583333
vt 0.625000 0.666667
vt 0.250000 0.500000
vt 0.375000 0.375000
vt 0.750000 0.500000
vt 0.625000 0.375000
vt 0.250000 0.750000
vt 0.375000 0.875000
vt 0.750000 0.750000
vt 0.625000 0.875000
vt 0.750000 0.583333
vt 0.750000 0.666667
vt 0.250000 0.583333
vt 0.250000 0.666667
s 0
usemtl Материал_
f 44/103/1 3/8/1 4/9/1 43/102/1
f 43/101/2 4/10/2 6/13/2 45/105/2
f 44/103/3 1/3/3 7/15/3 46/107/3
f 2/4/4 5/11/4 11/27/4 10/24/4
f 45/104/5 6/14/5 12/31/5 47/108/5
f 46/106/6 7/16/6 13/34/6 48/112/6
f 1/1/7 2/5/7 10/24/7 9/20/7
f 7/17/8 1/2/8 9/21/8 13/34/8
f 50/117/9 49/114/9 16/38/9 15/36/9
f 49/113/10 51/118/10 17/40/10 16/39/10
f 50/115/11 52/121/11 24/54/11 21/47/11
f 22/49/12 26/59/12 27/63/12 23/51/12
f 51/119/13 53/124/13 19/43/13 17/41/13
f 52/121/14 54/126/14 28/67/14 24/54/14
f 21/48/15 25/55/15 26/60/15 22/50/15
f 24/54/16 28/68/16 25/56/16 21/47/16
f 29/71/17 34/83/17 27/64/17 26/61/17
f 48/112/14 56/131/14 32/80/14 14/35/14
f 30/76/18 9/22/18 10/25/18 29/72/18
f 13/33/19 9/23/19 30/74/19 31/78/19
f 31/77/19 30/75/19 25/57/19 28/69/19
f 56/130/14 54/125/14 20/45/14 32/81/14
f 55/127/20 47/109/20 12/32/20 33/82/20
f 53/122/20 55/127/20 33/82/20 19/44/20
f 25/58/18 30/76/18 29/72/18 26/62/18
f 10/26/17 11/28/17 34/84/17 29/73/17
f 57/132/21 60/138/21 38/96/21 37/94/21
f 65/145/22 66/147/22 42/100/22 41/99/22
f 61/140/23 64/143/23 40/98/23 39/97/23
f 67/149/24 68/151/24 36/91/24 35/88/24
f 72/155/25 61/140/25 39/97/25 67/148/25
f 70/153/1 59/137/1 36/92/1 68/150/1
f 27/65/20 34/85/20 55/128/20 53/123/20
f 34/86/20 11/29/20 47/110/20 55/129/20
f 31/78/14 28/70/14 54/125/14 56/130/14
f 13/34/14 31/79/14 56/131/14 48/112/14
f 18/42/14 20/46/14 54/126/14 52/121/14
f 23/52/13 27/66/13 53/124/13 51/119/13
f 15/37/11 18/42/11 52/121/11 50/116/11
f 22/50/10 23/53/10 51/120/10 49/114/10
f 21/48/9 22/50/9 49/114/9 50/117/9
f 8/18/6 46/106/6 48/112/6 14/35/6
f 5/12/5 45/105/5 47/111/5 11/30/5
f 3/8/3 44/103/3 46/107/3 8/19/3
f 2/6/2 43/101/2 45/105/2 5/12/2
f 1/3/1 44/103/1 43/102/1 2/7/1
f 66/146/1 38/95/1 60/139/1 69/152/1
f 69/152/1 60/139/1 59/137/1 70/153/1
f 65/144/26 41/99/26 62/141/26 71/154/26
f 71/154/25 62/141/25 61/140/25 72/155/25
f 41/99/23 42/100/23 63/142/23 62/141/23
f 62/141/23 63/142/23 64/143/23 61/140/23
f 35/87/21 36/90/21 59/136/21 58/134/21
f 58/134/21 59/136/21 60/138/21 57/132/21
f 57/133/9 71/154/9 72/155/9 58/135/9
f 37/93/27 65/144/27 71/154/27 57/133/27
f 63/142/1 69/152/1 70/153/1 64/143/1
f 42/100/1 66/146/1 69/152/1 63/142/1
f 64/143/1 70/153/1 68/150/1 40/98/1
f 58/135/9 72/155/9 67/148/9 35/89/9
f 39/97/28 40/98/28 68/151/28 67/149/28
f 37/94/22 38/96/22 66/147/22 65/145/22
f 98/224/1 97/223/1 4/9/1 3/8/1
f 97/222/2 99/226/2 6/13/2 4/10/2
f 98/224/3 100/228/3 76/165/3 73/158/3
f 74/159/29 78/172/29 79/175/29 75/163/29
f 99/225/5 101/229/5 12/31/5 6/14/5
f 100/227/6 102/233/6 80/180/6 76/166/6
f 73/156/30 77/168/30 78/172/30 74/160/30
f 76/167/31 80/180/31 77/169/31 73/157/31
f 104/238/9 15/36/9 16/38/9 103/235/9
f 103/234/10 16/39/10 17/40/10 105/239/10
f 104/236/11 81/181/11 84/188/11 106/242/11
f 82/183/32 83/185/32 87/197/32 86/193/32
f 105/240/13 17/41/13 19/43/13 107/245/13
f 106/242/14 84/188/14 88/201/14 108/247/14
f 81/182/33 82/184/33 86/194/33 85/189/33
f 84/188/34 81/181/34 85/190/34 88/202/34
f 89/205/35 86/195/35 87/198/35 92/214/35
f 102/233/14 14/35/14 32/80/14 110/252/14
f 90/210/21 89/206/21 78/173/21 77/170/21
f 80/179/36 91/212/36 90/208/36 77/171/36
f 91/211/36 88/203/36 85/191/36 90/209/36
f 110/251/14 32/81/14 20/45/14 108/246/14
f 109/248/20 33/82/20 12/32/20 101/230/20
f 107/243/20 19/44/20 33/82/20 109/248/20
f 85/192/21 86/196/21 89/206/21 90/210/21
f 78/174/35 89/207/35 92/215/35 79/176/35
f 115/258/22 95/220/22 96/221/22 116/260/22
f 111/253/37 93/218/37 94/219/37 114/256/37
f 117/262/24 35/88/24 36/91/24 118/264/24
f 122/268/38 117/261/38 93/218/38 111/253/38
f 120/266/1 118/263/1 36/92/1 59/137/1
f 87/199/20 107/244/20 109/249/20 92/216/20
f 92/217/20 109/250/20 101/231/20 79/177/20
f 91/212/14 110/251/14 108/246/14 88/204/14
f 80/180/14 102/233/14 110/252/14 91/213/14
f 18/42/14 106/242/14 108/247/14 20/46/14
f 83/186/13 105/240/13 107/245/13 87/200/13
f 15/37/11 104/237/11 106/242/11 18/42/11
f 82/184/10 103/235/10 105/241/10 83/187/10
f 81/182/9 104/238/9 103/235/9 82/184/9
f 8/18/6 14/35/6 102/233/6 100/227/6
f 75/164/5 79/178/5 101/232/5 99/226/5
f 3/8/3 8/19/3 100/228/3 98/224/3
f 74/161/2 75/164/2 99/226/2 97/222/2
f 73/158/1 74/162/1 97/223/1 98/224/1
f 116/259/1 119/265/1 60/139/1 38/95/1
f 119/265/1 120/266/1 59/137/1 60/139/1
f 115/257/39 121/267/39 112/254/39 95/220/39
f 121/267/38 122/268/38 111/253/38 112/254/38
f 95/220/37 112/254/37 113/255/37 96/221/37
f 112/254/37 111/253/37 114/256/37 113/255/37
f 57/133/9 58/135/9 122/268/9 121/267/9
f 37/93/27 57/133/27 121/267/27 115/257/27
f 113/255/1 114/256/1 120/266/1 119/265/1
f 96/221/1 113/255/1 119/265/1 116/259/1
f 114/256/1 94/219/1 118/263/1 120/266/1
f 58/135/9 35/89/9 117/261/9 122/268/9
f 93/218/40 117/262/40 118/264/40 94/219/40
f 37/94/22 115/258/22 116/260/22 38/96/22
